<svg width="22" height="22" viewBox="0 0 22 22" fill="none" xmlns="http://www.w3.org/2000/svg">
<path fill-rule="evenodd" clip-rule="evenodd" d="M2.69531 0.0128528C2.27016 0.078759 2.01441 0.155587 1.66406 0.32265C1.10058 0.591384 0.582985 1.10926 0.315985 1.67152C-0.00182793 2.34081 2.55647e-07 2.32187 2.55647e-07 4.92934V7.27309L0.130172 7.49448C0.440719 8.02281 1.158 8.15087 1.62952 7.76218C1.97409 7.47817 1.96603 7.54032 1.99219 4.9727L2.01563 2.67231L2.14495 2.47702C2.21606 2.36959 2.36213 2.22352 2.46956 2.15242L2.66484 2.02309L4.96523 1.99965C7.53286 1.97349 7.4707 1.98156 7.75472 1.63698C8.14341 1.16546 8.01534 0.448181 7.48702 0.137634L7.26562 0.00746214L5.03906 0.00108716C3.81445 -0.00242847 2.75977 0.00286838 2.69531 0.0128528ZM14.7533 0.0283215C14.3549 0.126947 13.9918 0.574368 13.9925 0.965868C13.9931 1.40317 14.29 1.82626 14.6773 1.94199C14.8176 1.98395 15.449 1.99965 16.9922 1.99965C18.5354 1.99965 19.1668 2.01535 19.3071 2.05731C19.5561 2.1317 19.8601 2.43573 19.9345 2.68477C19.9764 2.82507 19.9923 3.45831 19.9925 5.00509C19.9926 6.37074 20.0107 7.1971 20.0429 7.31298C20.1135 7.56756 20.4324 7.87262 20.7088 7.94996C21.1548 8.07484 21.6224 7.88893 21.8542 7.49448L21.9844 7.27309V4.92934C21.9844 2.32374 21.9859 2.33949 21.6704 1.67663C21.4163 1.14306 20.878 0.591337 20.3672 0.341212C19.6901 0.00961845 19.7502 0.0160871 17.2031 0.00258714C15.9398 -0.00406911 14.8374 0.007509 14.7533 0.0283215ZM0.586266 10.0899C-0.225797 10.4421 -0.168937 11.6956 0.670078 11.9379C0.791719 11.9731 3.91383 11.984 11.0936 11.9743L21.3435 11.9606L21.5467 11.8179C22.1931 11.3641 22.1032 10.3869 21.3876 10.0878C21.2326 10.0231 20.114 10.0155 10.982 10.0171C1.94878 10.0187 0.730828 10.0273 0.586266 10.0899ZM0.533438 14.1306C0.35086 14.226 0.244266 14.3238 0.141328 14.4902L2.55647e-07 14.7189V17.0663C2.55647e-07 19.6771 -0.00187471 19.6577 0.315516 20.3278C0.579188 20.8844 1.10588 21.4096 1.66917 21.6778C2.33203 21.9933 2.31628 21.9918 4.92188 21.9918H7.26562L7.48702 21.8617C7.88147 21.6298 8.06738 21.1622 7.9425 20.7162C7.86473 20.4384 7.57416 20.1371 7.30706 20.0573C7.16677 20.0154 6.53536 19.9996 4.99219 19.9996C3.44902 19.9996 2.81761 19.9839 2.67731 19.942C2.42953 19.868 2.10858 19.5498 2.04286 19.313C2.01066 19.1971 1.99261 18.3707 1.99247 17.0051C1.99228 15.4583 1.97644 14.8251 1.93453 14.6848C1.86014 14.4357 1.55611 14.1317 1.30706 14.0573C1.00988 13.9685 0.806953 13.9877 0.533438 14.1306ZM20.6567 14.0505C20.4414 14.1159 20.1042 14.4652 20.0429 14.6863C20.0107 14.8022 19.9926 15.6286 19.9925 16.9942C19.9922 19.2756 19.9847 19.358 19.7528 19.6393C19.471 19.9812 19.5308 19.9735 16.9652 19.9996L14.6648 20.0231L14.4696 20.1524C14.1885 20.3385 14.0357 20.5927 14.007 20.9223C13.9741 21.2982 14.1526 21.6464 14.4828 21.8505L14.7114 21.9918H17.0588C19.6697 21.9918 19.652 21.9936 20.3177 21.6766C20.8771 21.4103 21.4028 20.8846 21.6691 20.3251C21.9861 19.6595 21.9844 19.6768 21.9844 17.07V14.7262L21.8542 14.5048C21.6233 14.112 21.1034 13.9148 20.6567 14.0505Z" fill="black"/>
</svg>
